<?xml version="1.0" standalone="no"?>
<!DOCTYPE svg PUBLIC "-//W3C//DTD SVG 20010904//EN"
 "http://www.w3.org/TR/2001/REC-SVG-20010904/DTD/svg10.dtd">
<svg version="1.0" xmlns="http://www.w3.org/2000/svg"
 width="744.000000pt" height="444.000000pt" viewBox="0 0 744.000000 444.000000"
 preserveAspectRatio="xMidYMid meet">

<g transform="translate(0.000000,444.000000) scale(0.100000,-0.100000)"
fill="#000000" stroke="none">
<path d="M1420 4420 c-158 -42 -575 -272 -795 -439 -113 -86 -288 -256 -357
-346 -235 -309 -315 -660 -228 -997 40 -156 102 -253 192 -299 45 -23 70 -24
109 -3 45 23 69 83 69 174 0 145 -73 240 -184 240 l-44 0 -7 84 c-28 337 151
691 489 962 240 193 650 428 814 466 48 10 55 10 80 -9 37 -27 40 -75 9 -152
-34 -85 -103 -190 -196 -303 -208 -251 -307 -460 -318 -674 -10 -178 30 -291
206 -586 l81 -137 -52 -48 c-95 -86 -168 -167 -237 -263 -448 -625 -559 -1269
-307 -1785 73 -149 105 -184 223 -242 l96 -48 111 0 c92 0 121 4 168 23 242
97 443 404 528 807 27 129 37 372 21 526 -30 286 -107 541 -254 838 l-71 144
30 24 c49 40 264 141 355 167 120 34 226 42 319 22 183 -38 323 -148 404 -318
66 -139 294 -746 436 -1161 32 -92 66 -177 75 -187 26 -29 85 -27 115 5 27 29
25 61 -13 225 -62 262 -107 612 -107 835 0 244 33 386 104 461 52 54 84 62
133 37 156 -80 317 -552 412 -1206 15 -104 23 -133 42 -153 31 -33 81 -33 116
2 25 25 25 26 19 152 -15 325 -17 504 -7 717 16 336 45 520 93 607 18 32 28
39 74 48 45 10 59 9 88 -5 56 -27 78 -87 151 -418 141 -637 241 -886 388 -964
46 -24 130 -21 190 7 191 91 274 357 266 854 -2 113 -3 206 -2 206 1 0 27 -49
58 -110 106 -207 235 -359 351 -416 111 -54 250 -39 317 35 50 55 62 99 60
216 -2 170 -80 433 -234 791 -39 90 -74 187 -79 220 -18 108 16 228 81 290
l30 29 19 -25 c42 -54 88 -188 210 -605 64 -219 104 -317 156 -374 53 -59 94
-72 142 -47 17 9 37 26 43 39 19 34 13 135 -20 332 -43 262 -55 399 -48 560
10 248 68 385 196 467 58 36 83 36 116 -3 42 -51 69 -112 134 -309 106 -315
179 -438 297 -496 44 -21 69 -27 122 -26 75 0 166 29 209 67 38 32 38 89 -1
121 -34 30 -45 30 -124 -2 -154 -61 -215 8 -342 386 -73 216 -115 309 -165
368 -109 127 -271 114 -420 -32 -140 -138 -205 -368 -193 -686 3 -74 3 -126 1
-115 -22 85 -102 313 -130 370 -66 131 -117 175 -205 175 -103 0 -222 -129
-263 -285 -20 -79 -18 -214 4 -295 10 -36 46 -126 79 -200 136 -306 215 -569
216 -718 1 -105 -3 -112 -70 -112 -72 0 -161 73 -251 206 -93 137 -185 334
-302 646 -69 183 -89 212 -148 212 -42 0 -83 -40 -83 -80 0 -14 11 -112 24
-217 39 -306 49 -467 43 -720 -4 -183 -10 -250 -26 -319 -29 -126 -77 -215
-132 -244 -42 -21 -65 -10 -105 50 -76 116 -147 343 -250 803 -35 161 -74 318
-86 348 -46 121 -148 195 -269 195 -141 0 -223 -49 -277 -167 -45 -100 -92
-359 -92 -513 0 -27 -4 -50 -8 -50 -4 0 -18 33 -31 72 -29 90 -108 261 -149
320 -83 120 -174 178 -283 178 -150 0 -265 -113 -318 -312 -28 -104 -33 -144
-40 -310 l-6 -147 -74 192 c-95 248 -139 339 -205 419 -183 221 -491 314 -781
234 -128 -35 -262 -91 -371 -156 -48 -28 -92 -49 -98 -47 -15 6 -184 298 -221
382 -28 66 -30 77 -30 195 1 119 2 129 36 217 43 110 110 224 184 313 149 178
237 312 282 426 35 92 38 200 6 259 -62 117 -165 154 -313 115z m65 -2280
c231 -461 305 -934 206 -1323 -69 -271 -193 -487 -335 -581 -110 -73 -221 -79
-330 -18 -86 48 -160 181 -214 382 -23 85 -25 115 -26 285 -1 164 2 204 22
293 64 285 209 587 413 859 56 74 190 213 205 213 2 0 29 -49 59 -110z"/>
<path d="M4897 3656 c-98 -36 -132 -126 -89 -234 25 -65 111 -170 149 -182 43
-15 87 8 103 52 17 48 25 247 11 290 -24 73 -95 103 -174 74z"/>
<path d="M2361 1291 c-40 -40 -81 -248 -62 -318 24 -87 109 -117 201 -70 65
33 85 66 85 141 0 51 -7 75 -34 128 -18 36 -46 82 -63 102 -25 30 -36 36 -69
36 -25 0 -46 -7 -58 -19z"/>
</g>
</svg>
