<?xml version="1.0" encoding="utf-8"?>
<!-- Generator: Adobe Adobe Illustrator 24.2.0, SVG Export Plug-In . SVG Version: 6.00 Build 0)  -->
<svg version="1.1" xmlns="http://www.w3.org/2000/svg" xmlns:xlink="http://www.w3.org/1999/xlink" x="0px" y="0px" width="779px"
	 height="574.57px" viewBox="0 0 779 574.57" style="enable-background:new 0 0 779 574.57;" xml:space="preserve">
<style type="text/css">
	.st0{display:none;}
	.st1{display:inline;}
	.st2{display:inline;fill:#FFFFFF;}
	.st3{display:inline;fill:none;stroke:#FF0000;stroke-width:17;stroke-linecap:round;stroke-linejoin:round;stroke-miterlimit:10;}
	.st4{display:inline;fill:none;stroke:#FF0000;stroke-width:0;stroke-linecap:round;stroke-linejoin:round;}
	.st5{display:none;fill:none;stroke:#FF0000;stroke-width:17;stroke-linecap:round;stroke-linejoin:round;stroke-miterlimit:10;}
	.st6{fill:none;stroke:#FF0000;stroke-width:17;stroke-linecap:round;stroke-linejoin:round;stroke-miterlimit:10;}
	.st7{display:none;fill:#FF0000;}
</style>
<g>
	
	<path class="st6" d="M222.04,292.28c13.06-0.75,23.88,1.8,32.57,5.58c14.98,6.51,26.71,18.79,33.08,33.83
		c15.56,36.74,48.14,128.45,48.14,130.63c0,2.66-37.13-142.48,6.86-158.82c43.99-16.34,61.69,138.65,61.69,138.65
		s-9.28-144.59,16.32-153.43c13.34-4.61,25.49-3.53,31.91,14.18c6.43,17.71,21.73,128.22,47.87,124.69
		c37.4-5.05,29.24-96.83,21.5-150.79c-6.86-47.82,29.67,118.46,78.46,96.19c23.74-10.83-22.95-108.35-22.95-108.35
		s-11.21-30.78,12.22-49.21c23.43-18.43,34.66,90.42,51.41,103.42s-30.65-104.29,17.14-137.7c47.79-33.4,30.45,108.56,88.83,76.71"
		/>
	<path class="st6" d="M130.12,345.44c0,0,37.58-46.28,91.93-53.15"/>
	<path class="st6" d="M102.5,538.88c0,0-63.06-74.09,27.61-193.45"/>
	<path class="st6" d="M193.61,437.28c2.23,63.23-40.71,140.42-91.11,101.6"/>
	<path class="st6" d="M128.99,270.76c14.71,36,61.71,83.88,64.62,166.52"/>
	<path class="st6" d="M156.83,182.57c0,0-45.26,45.55-27.84,88.19"/>
	<path class="st6" d="M170.38,124.4c7.7,4.95,20.32,15.46-13.55,58.17"/>
	<path class="st6" d="M89.11,159.97c0,0,66.3-45.2,81.27-35.58"/>
	<path class="st6" d="M30.17,309.46c0,0-44.78-78.14,58.94-149.49"/>
	<path class="st6" d="M253.44,435.33c0,0-8.99,28.09,0,26.96C262.43,461.17,268.05,455.55,253.44,435.33z"/>
	<path class="st6" d="M509.86,226.66c0,0,5.94-28.88-2.87-26.81C498.16,201.93,493.18,208.11,509.86,226.66z"/>
	<path class="st6" d="M29.55,306.61c0,0,15.12,25.23,15.11,0c-0.01-10.21-7.35-20.15-15.11-12.2"/>
	
</g>
</svg>
